<?xml version="1.0" encoding="UTF-8" standalone="no"?><!-- Generator: Gravit.io --><svg xmlns="http://www.w3.org/2000/svg" xmlns:xlink="http://www.w3.org/1999/xlink" style="isolation:isolate" viewBox="1.5 10.182 97 86" width="97pt" height="86pt"><defs><clipPath id="_clipPath_8MLLwWEhBWLDd6kpv9Ta6L9UKuToa2jX"><rect x="1.5" y="10.182" width="97" height="86"/></clipPath></defs><g clip-path="url(#_clipPath_8MLLwWEhBWLDd6kpv9Ta6L9UKuToa2jX)"><g><path d=" M 50 10.182 C 49.724 10.182 49.5 10.406 49.5 10.682 L 49.5 16.211 L 47.512 16.211 L 47.5 14.707 C 47.498 14.433 47.274 14.211 47 14.211 L 46.996 14.211 C 46.72 14.213 46.498 14.439 46.5 14.715 L 46.516 16.715 L 46.516 19.182 L 46 19.182 C 45.724 19.182 45.5 19.406 45.5 19.682 C 45.5 19.958 45.724 20.182 46 20.182 L 46.318 20.182 L 44.424 26.182 L 43.5 26.182 L 43.5 24.682 C 43.5 24.406 43.276 24.182 43 24.182 C 42.724 24.182 42.5 24.406 42.5 24.682 L 42.5 26.682 L 42.5 28.682 L 42.5 32.182 C 42.5 32.202 42.51 32.217 42.512 32.236 L 40.523 38.531 C 40.518 38.548 40.524 38.566 40.52 38.584 C 40.513 38.617 40.5 38.647 40.5 38.682 L 40.5 40.682 L 40.5 41.682 L 40.5 67.182 L 18.5 67.182 L 18.5 66.211 L 19.027 66.211 C 19.303 66.211 19.527 65.987 19.527 65.711 C 19.527 65.435 19.303 65.211 19.027 65.211 L 18.375 65.211 L 15.707 57.211 L 16.016 57.211 C 16.292 57.211 16.516 56.987 16.516 56.711 C 16.516 56.435 16.292 56.211 16.016 56.211 L 15.014 56.211 L 14.514 56.211 L 14.514 53.711 L 14.514 51.711 C 14.514 51.435 14.29 51.211 14.014 51.211 C 13.738 51.211 13.514 51.435 13.514 51.711 L 13.514 53.211 L 8.514 53.211 L 8.514 51.711 C 8.514 51.435 8.29 51.211 8.014 51.211 C 7.738 51.211 7.514 51.435 7.514 51.711 L 7.514 53.711 L 7.514 56.211 L 7.004 56.211 L 6.021 56.211 C 5.745 56.211 5.521 56.435 5.521 56.711 C 5.521 56.987 5.745 57.211 6.021 57.211 L 6.313 57.211 L 3.641 65.211 L 3.01 65.211 C 2.734 65.211 2.51 65.435 2.51 65.711 C 2.51 65.987 2.734 66.211 3.01 66.211 L 3.5 66.211 L 3.5 68.682 L 3.5 69.682 L 3.5 95.182 L 2 95.182 C 1.724 95.182 1.5 95.406 1.5 95.682 C 1.5 95.958 1.724 96.182 2 96.182 L 4 96.182 L 18 96.182 L 41 96.182 L 59 96.182 L 82 96.182 L 96 96.182 L 98 96.182 C 98.276 96.182 98.5 95.958 98.5 95.682 C 98.5 95.406 98.277 95.182 98 95.182 L 96.5 95.182 L 96.5 69.682 L 96.5 68.682 L 96.5 66.211 L 97 66.211 C 97.276 66.211 97.5 65.987 97.5 65.711 C 97.5 65.435 97.276 65.211 97 65.211 L 96.369 65.211 L 93.701 57.211 L 94.01 57.211 C 94.286 57.211 94.51 56.987 94.51 56.711 C 94.51 56.435 94.286 56.211 94.01 56.211 L 93.008 56.211 L 92.508 56.211 L 92.508 53.711 L 92.508 51.711 C 92.508 51.435 92.284 51.211 92.008 51.211 C 91.732 51.211 91.508 51.435 91.508 51.711 L 91.508 53.211 L 86.508 53.211 L 86.508 51.711 C 86.508 51.435 86.284 51.211 86.008 51.211 C 85.732 51.211 85.508 51.435 85.508 51.711 L 85.508 53.711 L 85.508 56.211 L 84.998 56.211 L 84.014 56.211 C 83.738 56.211 83.514 56.435 83.514 56.711 C 83.514 56.987 83.738 57.211 84.014 57.211 L 84.305 57.211 L 81.643 65.182 L 81.002 65.182 C 80.726 65.182 80.502 65.406 80.502 65.682 C 80.502 65.958 80.726 66.182 81.002 66.182 L 81.502 66.182 L 81.502 67.182 L 59.502 67.182 L 59.502 41.682 L 59.502 40.682 L 59.502 38.682 C 59.502 38.647 59.489 38.617 59.482 38.584 C 59.479 38.566 59.485 38.548 59.479 38.531 L 57.49 32.236 C 57.492 32.217 57.5 32.201 57.5 32.182 L 57.5 28.682 L 57.5 26.682 L 57.5 24.682 C 57.5 24.406 57.276 24.182 57 24.182 C 56.724 24.182 56.5 24.406 56.5 24.682 L 56.5 26.182 L 55.578 26.182 L 53.684 20.182 L 54 20.182 C 54.276 20.182 54.5 19.958 54.5 19.682 C 54.5 19.406 54.276 19.182 54 19.182 L 53.516 19.182 L 53.516 16.711 L 53.516 16.709 L 53.516 16.707 L 53.5 14.707 C 53.498 14.433 53.274 14.211 53 14.211 L 52.996 14.211 C 52.72 14.213 52.498 14.439 52.5 14.715 L 52.512 16.211 L 50.5 16.211 L 50.5 10.682 C 50.5 10.406 50.276 10.182 50 10.182 L 50 10.182 Z  M 47.516 17.211 L 48.5 17.211 L 48.5 19.182 L 47.516 19.182 L 47.516 17.211 L 47.516 17.211 Z  M 49.5 17.211 L 50.5 17.211 L 50.5 19.182 L 49.5 19.182 L 49.5 17.211 L 49.5 17.211 Z  M 51.5 17.211 L 52.516 17.211 L 52.516 19.182 L 51.5 19.182 L 51.5 17.211 L 51.5 17.211 Z  M 47.357 20.211 L 52.645 20.211 L 58.318 38.182 L 55.502 38.182 L 55.502 35.682 C 55.502 35.406 55.278 35.182 55.002 35.182 L 53.268 35.182 L 50.473 27.512 C 50.402 27.316 50.214 27.184 50.006 27.182 L 50.002 27.182 C 49.795 27.182 49.609 27.309 49.535 27.502 L 46.574 35.182 L 45.002 35.182 C 44.726 35.182 44.502 35.406 44.502 35.682 L 44.502 38.182 L 41.686 38.182 L 47.357 20.211 L 47.357 20.211 Z  M 43.5 27.182 L 44.109 27.182 L 43.5 29.105 L 43.5 28.682 L 43.5 27.182 L 43.5 27.182 Z  M 55.893 27.182 L 56.5 27.182 L 56.5 28.682 L 56.5 29.105 L 55.893 27.182 L 55.893 27.182 Z  M 49.988 29.104 L 52.447 35.852 C 52.448 35.855 52.451 35.854 52.453 35.857 C 52.486 35.943 52.543 36.012 52.615 36.068 C 52.631 36.08 52.645 36.092 52.662 36.102 C 52.738 36.148 52.821 36.18 52.916 36.18 L 54.5 36.18 L 54.5 38.676 L 54.5 38.68 C 54.5 38.956 54.724 39.18 55 39.18 L 56 39.18 L 58 39.18 L 58.5 39.18 L 58.5 39.272 C 58.343 39.216 58.176 39.18 58 39.18 C 57.615 39.18 57.266 39.33 57 39.57 C 56.734 39.33 56.385 39.18 56 39.18 C 55.173 39.18 54.5 39.853 54.5 40.68 L 54.5 41.68 C 54.5 41.956 54.724 42.18 55 42.18 C 55.276 42.18 55.5 41.956 55.5 41.68 L 55.5 40.68 C 55.5 40.405 55.725 40.18 56 40.18 C 56.275 40.18 56.5 40.405 56.5 40.68 L 56.5 41.68 C 56.5 41.956 56.724 42.18 57 42.18 C 57.276 42.18 57.5 41.956 57.5 41.68 L 57.5 40.68 C 57.5 40.405 57.725 40.18 58 40.18 C 58.275 40.18 58.5 40.405 58.5 40.68 L 58.5 41.68 L 58.5 47.18 L 53 47.18 L 47 47.18 L 41.5 47.18 L 41.5 41.68 L 41.5 40.68 C 41.5 40.405 41.725 40.18 42 40.18 C 42.275 40.18 42.5 40.405 42.5 40.68 L 42.5 41.68 C 42.5 41.956 42.724 42.18 43 42.18 C 43.276 42.18 43.5 41.956 43.5 41.68 L 43.5 40.68 C 43.5 40.405 43.725 40.18 44 40.18 C 44.275 40.18 44.5 40.405 44.5 40.68 L 44.5 41.68 C 44.5 41.956 44.724 42.18 45 42.18 C 45.276 42.18 45.5 41.956 45.5 41.68 L 45.5 40.68 C 45.5 39.859 44.837 39.192 44.02 39.182 L 45 39.182 C 45.276 39.182 45.5 38.958 45.5 38.682 L 45.5 36.182 L 46.918 36.182 C 46.921 36.182 46.923 36.18 46.926 36.18 C 46.951 36.179 46.974 36.169 46.998 36.164 C 47.172 36.135 47.317 36.025 47.381 35.865 C 47.382 35.863 47.382 35.861 47.383 35.859 L 49.988 29.103 L 49.988 29.104 Z  M 41.5 39.182 L 41.99 39.182 C 41.818 39.183 41.654 39.217 41.5 39.271 L 41.5 39.182 L 41.5 39.182 Z  M 42.02 39.182 L 43.98 39.182 C 43.603 39.187 43.261 39.334 43 39.57 C 42.739 39.334 42.397 39.187 42.02 39.182 Z  M 50 39.182 C 48.07 39.182 46.5 40.752 46.5 42.682 C 46.5 44.612 48.071 46.182 50 46.182 C 51.93 46.182 53.5 44.612 53.5 42.682 C 53.5 40.752 51.93 39.182 50 39.182 Z  M 50 40.182 C 51.379 40.182 52.5 41.303 52.5 42.682 C 52.5 44.061 51.379 45.182 50 45.182 C 48.621 45.182 47.5 44.061 47.5 42.682 C 47.5 41.303 48.621 40.182 50 40.182 Z  M 50 41.182 C 49.724 41.182 49.5 41.406 49.5 41.682 L 49.5 42.682 C 49.501 42.958 49.724 43.182 50 43.182 C 50.009 43.182 50.018 43.178 50.027 43.178 C 50.036 43.178 50.044 43.182 50.053 43.182 L 51.5 43.182 C 51.776 43.182 52 42.958 52 42.682 C 52 42.406 51.776 42.182 51.5 42.182 L 50.5 42.182 L 50.5 41.682 C 50.5 41.406 50.276 41.182 50 41.182 L 50 41.182 Z  M 41.5 48.182 L 46.5 48.182 L 46.5 49.682 C 46.5 49.871 46.608 50.044 46.777 50.129 L 48.5 50.99 L 48.5 52.682 C 48.5 52.958 48.724 53.182 49 53.182 L 49.5 53.182 L 49.5 55.182 C 49.224 55.182 49 55.406 49 55.682 C 49 55.958 49.224 56.182 49.5 56.182 L 50.5 56.182 C 50.776 56.182 51 55.958 51 55.682 C 51 55.406 50.776 55.182 50.5 55.182 L 50.5 53.182 L 51 53.182 C 51.276 53.182 51.5 52.958 51.5 52.682 L 51.5 50.99 L 53.225 50.129 C 53.394 50.044 53.5 49.871 53.5 49.682 L 53.5 48.182 L 58.5 48.182 L 58.5 60.182 L 54.5 60.182 L 54.5 58.182 C 54.5 57.079 53.603 56.182 52.5 56.182 C 51.397 56.182 50.5 57.079 50.5 58.182 L 50.5 60.182 L 49.5 60.182 L 49.5 58.182 C 49.5 57.079 48.603 56.182 47.5 56.182 C 46.397 56.182 45.5 57.079 45.5 58.182 L 45.5 60.182 L 41.5 60.182 L 41.5 48.182 L 41.5 48.182 Z  M 47.5 48.184 L 52.5 48.184 L 52.5 49.373 L 50.777 50.234 C 50.608 50.319 50.5 50.493 50.5 50.682 L 50.5 52.182 L 49.5 52.182 L 49.5 50.682 C 49.5 50.493 49.394 50.319 49.225 50.234 L 47.5 49.373 L 47.5 48.184 L 47.5 48.184 Z  M 8.516 54.211 L 9.5 54.211 L 9.5 56.182 L 8.516 56.182 L 8.516 54.211 L 8.516 54.211 Z  M 10.5 54.211 L 11.5 54.211 L 11.5 56.182 L 10.5 56.182 L 10.5 54.211 L 10.5 54.211 Z  M 12.5 54.211 L 13.516 54.211 L 13.516 56.182 L 12.5 56.182 L 12.5 54.211 L 12.5 54.211 Z  M 86.508 54.211 L 87.494 54.211 L 87.494 56.182 L 86.508 56.182 L 86.508 54.211 L 86.508 54.211 Z  M 88.494 54.211 L 89.494 54.211 L 89.494 56.182 L 88.494 56.182 L 88.494 54.211 L 88.494 54.211 Z  M 90.492 54.211 L 91.508 54.211 L 91.508 56.182 L 90.492 56.182 L 90.492 54.211 L 90.492 54.211 Z  M 47.5 57.182 C 48.052 57.182 48.5 57.63 48.5 58.182 L 48.5 60.682 L 48.5 62.682 L 48.5 65.182 L 46.5 65.182 L 46.5 58.182 C 46.5 57.63 46.948 57.182 47.5 57.182 Z  M 52.5 57.182 C 53.052 57.182 53.5 57.63 53.5 58.182 L 53.5 65.182 L 51.5 65.182 L 51.5 62.682 L 51.5 60.682 L 51.5 58.182 C 51.5 57.63 51.948 57.182 52.5 57.182 Z  M 7.367 57.211 L 14.656 57.211 L 17.322 65.211 L 16.219 65.211 L 14.225 65.211 L 11.371 62.33 C 11.277 62.235 11.15 62.182 11.018 62.182 L 11.016 62.182 C 10.883 62.182 10.755 62.234 10.662 62.328 L 7.793 65.211 L 6.219 65.211 L 4.695 65.211 L 7.367 57.211 L 7.367 57.211 Z  M 85.359 57.211 L 92.648 57.211 L 95.314 65.211 L 94.002 65.211 L 92.217 65.211 L 89.363 62.33 C 89.269 62.235 89.142 62.182 89.01 62.182 L 89.008 62.182 C 88.875 62.182 88.747 62.234 88.654 62.328 L 85.787 65.211 L 84.148 65.211 C 84.101 65.197 84.053 65.182 84.002 65.182 L 82.699 65.182 L 85.359 57.211 L 85.359 57.211 Z  M 41.5 61.182 L 45.5 61.182 L 45.5 65.182 L 45 65.182 C 44.724 65.182 44.5 65.406 44.5 65.682 L 44.5 67.682 C 44.5 67.958 44.724 68.182 45 68.182 L 55 68.182 C 55.276 68.182 55.5 67.958 55.5 67.682 L 55.5 65.682 C 55.5 65.406 55.276 65.182 55 65.182 L 54.5 65.182 L 54.5 61.182 L 58.5 61.182 L 58.5 67.682 L 58.5 72.682 L 58.5 80.182 L 54.5 80.182 L 54.5 72.682 C 54.5 71.303 53.379 70.182 52 70.182 C 51.179 70.182 50.456 70.585 50 71.197 C 49.544 70.585 48.821 70.182 48 70.182 C 46.621 70.182 45.5 71.303 45.5 72.682 L 45.5 80.182 L 41.5 80.182 L 41.5 72.682 L 41.5 67.682 L 41.5 61.182 L 41.5 61.182 Z  M 49.5 61.182 L 50.5 61.182 L 50.5 62.182 L 49.5 62.182 L 49.5 61.182 L 49.5 61.182 Z  M 49.5 63.182 L 50.5 63.182 L 50.5 65.182 L 49.5 65.182 L 49.5 63.182 L 49.5 63.182 Z  M 11.014 63.393 L 13.66 66.063 C 13.754 66.158 13.883 66.211 14.016 66.211 L 16.219 66.211 L 17.5 66.211 L 17.5 67.273 C 17.343 67.217 17.176 67.182 17 67.182 C 16.615 67.182 16.266 67.332 16 67.572 C 15.734 67.332 15.385 67.182 15 67.182 C 14.173 67.182 13.5 67.855 13.5 68.682 L 13.5 69.682 C 13.5 69.958 13.724 70.182 14 70.182 C 14.276 70.182 14.5 69.958 14.5 69.682 L 14.5 68.682 C 14.5 68.407 14.725 68.182 15 68.182 C 15.275 68.182 15.5 68.407 15.5 68.682 L 15.5 69.682 C 15.5 69.958 15.724 70.182 16 70.182 C 16.276 70.182 16.5 69.958 16.5 69.682 L 16.5 68.682 C 16.5 68.407 16.725 68.182 17 68.182 C 17.275 68.182 17.5 68.407 17.5 68.682 L 17.5 69.682 L 17.5 72.682 L 17.5 95.182 L 15.449 95.182 L 15.449 91.672 C 15.449 89.191 13.43 87.172 10.949 87.172 C 8.468 87.172 6.449 89.191 6.449 91.672 L 6.449 95.182 L 4.5 95.182 L 4.5 69.682 L 4.5 68.682 C 4.5 68.407 4.725 68.182 5 68.182 C 5.275 68.182 5.5 68.407 5.5 68.682 L 5.5 69.682 C 5.5 69.958 5.724 70.182 6 70.182 C 6.276 70.182 6.5 69.958 6.5 69.682 L 6.5 68.682 C 6.5 68.407 6.725 68.182 7 68.182 C 7.275 68.182 7.5 68.407 7.5 68.682 L 7.5 69.682 C 7.5 69.958 7.724 70.182 8 70.182 C 8.276 70.182 8.5 69.958 8.5 69.682 L 8.5 68.682 C 8.5 67.855 7.827 67.182 7 67.182 C 6.615 67.182 6.266 67.332 6 67.572 C 5.734 67.332 5.385 67.182 5 67.182 C 4.824 67.182 4.657 67.217 4.5 67.273 L 4.5 66.211 L 6.219 66.211 L 8 66.211 C 8.133 66.211 8.262 66.158 8.355 66.064 L 11.014 63.393 L 11.014 63.393 Z  M 89.006 63.393 L 91.652 66.063 C 91.746 66.158 91.875 66.211 92.008 66.211 L 94 66.211 L 95.5 66.211 L 95.5 67.273 C 95.343 67.217 95.176 67.182 95 67.182 C 94.615 67.182 94.266 67.332 94 67.572 C 93.734 67.332 93.385 67.182 93 67.182 C 92.173 67.182 91.5 67.855 91.5 68.682 L 91.5 69.682 C 91.5 69.958 91.724 70.182 92 70.182 C 92.276 70.182 92.5 69.958 92.5 69.682 L 92.5 68.682 C 92.5 68.407 92.725 68.182 93 68.182 C 93.275 68.182 93.5 68.407 93.5 68.682 L 93.5 69.682 C 93.5 69.958 93.724 70.182 94 70.182 C 94.276 70.182 94.5 69.958 94.5 69.682 L 94.5 68.682 C 94.5 68.407 94.725 68.182 95 68.182 C 95.275 68.182 95.5 68.407 95.5 68.682 L 95.5 69.682 L 95.5 95.182 L 93.449 95.182 L 93.449 91.672 C 93.449 89.191 91.43 87.172 88.949 87.172 C 86.468 87.172 84.449 89.191 84.449 91.672 L 84.449 95.182 L 82.502 95.182 L 82.502 72.682 L 82.502 69.682 L 82.502 68.682 C 82.502 68.407 82.727 68.182 83.002 68.182 C 83.277 68.182 83.502 68.407 83.502 68.682 L 83.502 69.682 C 83.502 69.958 83.726 70.182 84.002 70.182 C 84.278 70.182 84.502 69.958 84.502 69.682 L 84.502 68.682 C 84.502 68.407 84.727 68.182 85.002 68.182 C 85.277 68.182 85.502 68.407 85.502 68.682 L 85.502 69.682 C 85.502 69.958 85.726 70.182 86.002 70.182 C 86.278 70.182 86.502 69.958 86.502 69.682 L 86.502 68.682 C 86.502 67.855 85.829 67.182 85.002 67.182 C 84.617 67.182 84.268 67.332 84.002 67.572 C 83.736 67.332 83.387 67.182 83.002 67.182 C 82.826 67.182 82.659 67.217 82.502 67.273 L 82.502 66.211 L 85.994 66.211 C 86.127 66.211 86.255 66.158 86.348 66.064 L 89.006 63.393 L 89.006 63.393 Z  M 11 65.182 C 10.173 65.182 9.5 65.855 9.5 66.682 L 9.5 69.682 C 9.5 69.958 9.724 70.182 10 70.182 L 12 70.182 C 12.276 70.182 12.5 69.958 12.5 69.682 L 12.5 66.682 C 12.5 65.855 11.827 65.182 11 65.182 Z  M 89 65.182 C 88.173 65.182 87.5 65.855 87.5 66.682 L 87.5 69.682 C 87.5 69.958 87.724 70.182 88 70.182 L 90 70.182 C 90.276 70.182 90.5 69.958 90.5 69.682 L 90.5 66.682 C 90.5 65.855 89.827 65.182 89 65.182 Z  M 11 66.182 C 11.275 66.182 11.5 66.407 11.5 66.682 L 11.5 69.182 L 10.5 69.182 L 10.5 66.682 C 10.5 66.407 10.725 66.182 11 66.182 Z  M 45.5 66.182 L 46 66.182 L 46.5 66.182 L 46.5 67.182 L 45.5 67.182 L 45.5 66.182 L 45.5 66.182 Z  M 47.5 66.182 L 48.5 66.182 L 48.5 67.182 L 47.5 67.182 L 47.5 66.182 L 47.5 66.182 Z  M 49.5 66.182 L 50.5 66.182 L 50.5 67.182 L 49.5 67.182 L 49.5 66.182 L 49.5 66.182 Z  M 51.5 66.182 L 52.5 66.182 L 52.5 67.182 L 51.5 67.182 L 51.5 66.182 L 51.5 66.182 Z  M 53.5 66.182 L 54 66.182 L 54.5 66.182 L 54.5 67.182 L 53.5 67.182 L 53.5 66.182 L 53.5 66.182 Z  M 89 66.182 C 89.275 66.182 89.5 66.407 89.5 66.682 L 89.5 69.182 L 88.5 69.182 L 88.5 66.682 C 88.5 66.407 88.725 66.182 89 66.182 Z  M 18.5 68.182 L 40.5 68.182 L 40.5 72.182 L 18.5 72.182 L 18.5 69.682 L 18.5 68.682 L 18.5 68.182 L 18.5 68.182 Z  M 59.5 68.182 L 81.5 68.182 L 81.5 68.682 L 81.5 69.682 L 81.5 72.182 L 59.5 72.182 L 59.5 68.182 L 59.5 68.182 Z  M 48 71.182 C 48.827 71.182 49.5 71.855 49.5 72.682 L 49.5 80.182 L 46.5 80.182 L 46.5 72.682 C 46.5 71.855 47.173 71.182 48 71.182 Z  M 52 71.182 C 52.827 71.182 53.5 71.855 53.5 72.682 L 53.5 80.182 L 50.5 80.182 L 50.5 72.682 C 50.5 71.855 51.173 71.182 52 71.182 Z  M 11 73.172 C 8.947 73.172 7.231 74.56 6.693 76.443 C 6.661 76.5 6.642 76.565 6.635 76.633 C 6.555 76.968 6.502 77.312 6.502 77.672 L 6.502 84.672 C 6.501 84.947 6.724 85.172 7 85.172 L 15 85.172 C 15.276 85.172 15.5 84.948 15.5 84.672 L 15.5 77.672 C 15.5 77.309 15.446 76.959 15.365 76.621 C 15.357 76.557 15.341 76.499 15.311 76.445 C 14.774 74.561 13.054 73.172 11 73.172 L 11 73.172 Z  M 89.002 73.172 C 86.949 73.172 85.231 74.56 84.693 76.443 C 84.661 76.5 84.644 76.565 84.637 76.633 C 84.557 76.968 84.502 77.312 84.502 77.672 L 84.502 84.672 C 84.502 84.948 84.726 85.172 85.002 85.172 L 93.002 85.172 C 93.278 85.172 93.502 84.948 93.502 84.672 L 93.502 77.672 C 93.502 77.309 93.448 76.961 93.367 76.623 C 93.358 76.558 93.34 76.499 93.311 76.445 C 92.774 74.561 91.056 73.172 89.002 73.172 L 89.002 73.172 Z  M 18.5 73.182 L 40.5 73.182 L 40.5 81.182 L 39.5 81.182 L 39.5 76.932 C 39.5 75.967 38.715 75.182 37.75 75.182 C 37.26 75.182 36.818 75.386 36.5 75.711 C 36.182 75.385 35.74 75.182 35.25 75.182 C 34.285 75.182 33.5 75.967 33.5 76.932 L 33.5 81.182 L 32.5 81.182 L 32.5 76.932 C 32.5 75.967 31.715 75.182 30.75 75.182 C 30.26 75.182 29.818 75.386 29.5 75.711 C 29.182 75.385 28.74 75.182 28.25 75.182 C 27.285 75.182 26.5 75.967 26.5 76.932 L 26.5 81.182 L 25.5 81.182 L 25.5 76.932 C 25.5 75.967 24.715 75.182 23.75 75.182 C 23.26 75.182 22.818 75.386 22.5 75.711 C 22.182 75.385 21.74 75.182 21.25 75.182 C 20.285 75.182 19.5 75.967 19.5 76.932 L 19.5 81.182 L 18.5 81.182 L 18.5 73.182 L 18.5 73.182 Z  M 59.5 73.182 L 81.5 73.182 L 81.5 81.182 L 80.5 81.182 L 80.5 76.932 C 80.5 75.967 79.715 75.182 78.75 75.182 C 78.26 75.182 77.818 75.386 77.5 75.711 C 77.182 75.385 76.74 75.182 76.25 75.182 C 75.285 75.182 74.5 75.967 74.5 76.932 L 74.5 81.182 L 73.5 81.182 L 73.5 76.932 C 73.5 75.967 72.715 75.182 71.75 75.182 C 71.26 75.182 70.818 75.386 70.5 75.711 C 70.182 75.385 69.74 75.182 69.25 75.182 C 68.285 75.182 67.5 75.967 67.5 76.932 L 67.5 81.182 L 66.5 81.182 L 66.5 76.932 C 66.5 75.967 65.715 75.182 64.75 75.182 C 64.26 75.182 63.818 75.386 63.5 75.711 C 63.182 75.385 62.74 75.182 62.25 75.182 C 61.285 75.182 60.5 75.967 60.5 76.932 L 60.5 81.182 L 59.5 81.182 L 59.5 73.182 L 59.5 73.182 Z  M 11 74.172 C 12.395 74.172 13.594 74.998 14.156 76.182 L 7.846 76.182 C 8.408 74.997 9.605 74.172 11 74.172 Z  M 89 74.172 C 90.395 74.172 91.594 74.998 92.156 76.182 L 85.846 76.182 C 86.408 74.997 87.605 74.172 89 74.172 Z  M 21.25 76.182 C 21.663 76.182 22 76.519 22 76.932 L 22 81.182 L 20.5 81.182 L 20.5 76.932 C 20.5 76.519 20.837 76.182 21.25 76.182 Z  M 23.75 76.182 C 24.163 76.182 24.5 76.519 24.5 76.932 L 24.5 81.182 L 23 81.182 L 23 76.932 C 23 76.519 23.337 76.182 23.75 76.182 Z  M 28.25 76.182 C 28.663 76.182 29 76.519 29 76.932 L 29 81.182 L 27.5 81.182 L 27.5 76.932 C 27.5 76.519 27.837 76.182 28.25 76.182 Z  M 30.75 76.182 C 31.163 76.182 31.5 76.519 31.5 76.932 L 31.5 81.182 L 30 81.182 L 30 76.932 C 30 76.519 30.337 76.182 30.75 76.182 Z  M 35.25 76.182 C 35.663 76.182 36 76.519 36 76.932 L 36 81.182 L 34.5 81.182 L 34.5 76.932 C 34.5 76.519 34.837 76.182 35.25 76.182 Z  M 37.75 76.182 C 38.163 76.182 38.5 76.519 38.5 76.932 L 38.5 81.182 L 37 81.182 L 37 76.932 C 37 76.519 37.337 76.182 37.75 76.182 Z  M 62.25 76.182 C 62.663 76.182 63 76.519 63 76.932 L 63 81.182 L 61.5 81.182 L 61.5 76.932 C 61.5 76.519 61.837 76.182 62.25 76.182 Z  M 64.75 76.182 C 65.163 76.182 65.5 76.519 65.5 76.932 L 65.5 81.182 L 64 81.182 L 64 76.932 C 64 76.519 64.337 76.182 64.75 76.182 Z  M 69.25 76.182 C 69.663 76.182 70 76.519 70 76.932 L 70 81.182 L 68.5 81.182 L 68.5 76.932 C 68.5 76.519 68.837 76.182 69.25 76.182 Z  M 71.75 76.182 C 72.163 76.182 72.5 76.519 72.5 76.932 L 72.5 81.182 L 71 81.182 L 71 76.932 C 71 76.519 71.337 76.182 71.75 76.182 Z  M 76.25 76.182 C 76.663 76.182 77 76.519 77 76.932 L 77 81.182 L 75.5 81.182 L 75.5 76.932 C 75.5 76.519 75.837 76.182 76.25 76.182 Z  M 78.75 76.182 C 79.163 76.182 79.5 76.519 79.5 76.932 L 79.5 81.182 L 78 81.182 L 78 76.932 C 78 76.519 78.337 76.182 78.75 76.182 Z  M 7.551 77.182 L 8.5 77.182 L 8.5 78.182 L 7.5 78.182 L 7.5 77.672 C 7.5 77.504 7.528 77.343 7.551 77.182 L 7.551 77.182 Z  M 9.5 77.182 L 10.5 77.182 L 10.5 78.182 L 9.5 78.182 L 9.5 77.182 L 9.5 77.182 Z  M 11.5 77.182 L 12.5 77.182 L 12.5 78.182 L 11.5 78.182 L 11.5 77.182 L 11.5 77.182 Z  M 13.5 77.182 L 14.451 77.182 C 14.475 77.343 14.5 77.504 14.5 77.672 L 14.5 78.182 L 13.5 78.182 L 13.5 77.182 L 13.5 77.182 Z  M 85.551 77.182 L 86.5 77.182 L 86.5 78.182 L 85.5 78.182 L 85.5 77.672 C 85.5 77.504 85.528 77.343 85.551 77.182 L 85.551 77.182 Z  M 87.5 77.182 L 88.5 77.182 L 88.5 78.182 L 87.5 78.182 L 87.5 77.182 L 87.5 77.182 Z  M 89.5 77.182 L 90.5 77.182 L 90.5 78.182 L 89.5 78.182 L 89.5 77.182 L 89.5 77.182 Z  M 91.5 77.182 L 92.451 77.182 C 92.474 77.343 92.5 77.505 92.5 77.672 L 92.5 78.182 L 91.5 78.182 L 91.5 77.182 L 91.5 77.182 Z  M 7.5 79.182 L 8.5 79.182 L 8.5 84.172 L 7.5 84.172 L 7.5 79.182 L 7.5 79.182 Z  M 9.5 79.182 L 10.5 79.182 L 10.5 84.172 L 9.5 84.172 L 9.5 79.182 L 9.5 79.182 Z  M 11.5 79.182 L 12.5 79.182 L 12.5 84.172 L 11.5 84.172 L 11.5 79.182 L 11.5 79.182 Z  M 13.5 79.182 L 14.5 79.182 L 14.5 84.172 L 13.5 84.172 L 13.5 79.182 L 13.5 79.182 Z  M 85.5 79.182 L 86.5 79.182 L 86.5 84.172 L 85.5 84.172 L 85.5 79.182 L 85.5 79.182 Z  M 87.5 79.182 L 88.5 79.182 L 88.5 84.172 L 87.5 84.172 L 87.5 79.182 L 87.5 79.182 Z  M 89.5 79.182 L 90.5 79.182 L 90.5 84.172 L 89.5 84.172 L 89.5 79.182 L 89.5 79.182 Z  M 91.5 79.182 L 92.5 79.182 L 92.5 84.172 L 91.5 84.172 L 91.5 79.182 L 91.5 79.182 Z  M 41.502 81.182 L 46 81.182 L 50 81.182 L 54 81.182 L 58.5 81.182 L 58.5 95.182 L 55.449 95.182 L 55.449 88.672 C 55.449 85.64 52.981 83.172 49.949 83.172 C 46.917 83.172 44.449 85.64 44.449 88.672 L 44.449 95.182 L 41.502 95.182 L 41.502 81.182 L 41.502 81.182 Z  M 18.5 82.182 L 20 82.182 L 22.5 82.182 L 25 82.182 L 27 82.182 L 29.5 82.182 L 32 82.182 L 34 82.182 L 36.5 82.182 L 39 82.182 L 40.5 82.182 L 40.5 95.182 L 39.5 95.182 L 39.5 91.176 C 39.5 89.522 38.154 88.176 36.5 88.176 C 34.846 88.176 33.5 89.522 33.5 91.176 L 33.5 95.182 L 32.5 95.182 L 32.5 91.176 C 32.5 89.522 31.154 88.176 29.5 88.176 C 27.846 88.176 26.5 89.522 26.5 91.176 L 26.5 95.182 L 25.5 95.182 L 25.5 91.176 C 25.5 89.522 24.154 88.176 22.5 88.176 C 20.846 88.176 19.5 89.522 19.5 91.176 L 19.5 95.182 L 18.5 95.182 L 18.5 82.182 L 18.5 82.182 Z  M 59.5 82.182 L 61 82.182 L 63.5 82.182 L 66 82.182 L 68 82.182 L 70.5 82.182 L 73 82.182 L 75 82.182 L 77.5 82.182 L 80 82.182 L 81.5 82.182 L 81.5 95.182 L 80.5 95.182 L 80.5 91.176 C 80.5 89.522 79.154 88.176 77.5 88.176 C 75.846 88.176 74.5 89.522 74.5 91.176 L 74.5 95.182 L 73.5 95.182 L 73.5 91.176 C 73.5 89.522 72.154 88.176 70.5 88.176 C 68.846 88.176 67.5 89.522 67.5 91.176 L 67.5 95.182 L 66.5 95.182 L 66.5 91.176 C 66.5 89.522 65.154 88.176 63.5 88.176 C 61.846 88.176 60.5 89.522 60.5 91.176 L 60.5 95.182 L 59.5 95.182 L 59.5 82.182 L 59.5 82.182 Z  M 20 83.172 C 19.724 83.172 19.5 83.396 19.5 83.672 L 19.5 86.172 C 19.5 86.448 19.724 86.672 20 86.672 L 22.5 86.672 L 25 86.672 C 25.276 86.672 25.5 86.448 25.5 86.172 L 25.5 83.672 C 25.5 83.396 25.276 83.172 25 83.172 L 22.5 83.172 L 20 83.172 L 20 83.172 Z  M 27 83.172 C 26.724 83.172 26.5 83.396 26.5 83.672 L 26.5 86.172 C 26.5 86.448 26.724 86.672 27 86.672 L 29.5 86.672 L 32 86.672 C 32.276 86.672 32.5 86.448 32.5 86.172 L 32.5 83.672 C 32.5 83.396 32.276 83.172 32 83.172 L 29.5 83.172 L 27 83.172 L 27 83.172 Z  M 34 83.172 C 33.724 83.172 33.5 83.396 33.5 83.672 L 33.5 86.172 C 33.5 86.448 33.724 86.672 34 86.672 L 36.5 86.672 L 39 86.672 C 39.276 86.672 39.5 86.448 39.5 86.172 L 39.5 83.672 C 39.5 83.396 39.276 83.172 39 83.172 L 36.5 83.172 L 34 83.172 L 34 83.172 Z  M 61 83.172 C 60.724 83.172 60.5 83.396 60.5 83.672 L 60.5 86.172 C 60.5 86.448 60.724 86.672 61 86.672 L 63.5 86.672 L 66 86.672 C 66.276 86.672 66.5 86.448 66.5 86.172 L 66.5 83.672 C 66.5 83.396 66.276 83.172 66 83.172 L 63.5 83.172 L 61 83.172 L 61 83.172 Z  M 68 83.172 C 67.724 83.172 67.5 83.396 67.5 83.672 L 67.5 86.172 C 67.5 86.448 67.724 86.672 68 86.672 L 70.5 86.672 L 73 86.672 C 73.276 86.672 73.5 86.448 73.5 86.172 L 73.5 83.672 C 73.5 83.396 73.276 83.172 73 83.172 L 70.5 83.172 L 68 83.172 L 68 83.172 Z  M 75 83.172 C 74.724 83.172 74.5 83.396 74.5 83.672 L 74.5 86.172 C 74.5 86.448 74.724 86.672 75 86.672 L 77.5 86.672 L 80 86.672 C 80.276 86.672 80.5 86.448 80.5 86.172 L 80.5 83.672 C 80.5 83.396 80.276 83.172 80 83.172 L 77.5 83.172 L 75 83.172 L 75 83.172 Z  M 20.5 84.172 L 22 84.172 L 22 85.672 L 20.5 85.672 L 20.5 84.172 L 20.5 84.172 Z  M 23 84.172 L 24.5 84.172 L 24.5 85.672 L 23 85.672 L 23 84.172 L 23 84.172 Z  M 27.5 84.172 L 29 84.172 L 29 85.672 L 27.5 85.672 L 27.5 84.172 L 27.5 84.172 Z  M 30 84.172 L 31.5 84.172 L 31.5 85.672 L 30 85.672 L 30 84.172 L 30 84.172 Z  M 34.5 84.172 L 36 84.172 L 36 85.672 L 34.5 85.672 L 34.5 84.172 L 34.5 84.172 Z  M 37 84.172 L 38.5 84.172 L 38.5 85.672 L 37 85.672 L 37 84.172 L 37 84.172 Z  M 49.949 84.172 C 52.43 84.172 54.449 86.191 54.449 88.672 L 54.449 95.172 L 45.449 95.172 L 45.449 88.672 C 45.449 86.191 47.468 84.172 49.949 84.172 Z  M 61.5 84.172 L 63 84.172 L 63 85.672 L 61.5 85.672 L 61.5 84.172 L 61.5 84.172 Z  M 64 84.172 L 65.5 84.172 L 65.5 85.672 L 64 85.672 L 64 84.172 L 64 84.172 Z  M 68.5 84.172 L 70 84.172 L 70 85.672 L 68.5 85.672 L 68.5 84.172 L 68.5 84.172 Z  M 71 84.172 L 72.5 84.172 L 72.5 85.672 L 71 85.672 L 71 84.172 L 71 84.172 Z  M 75.5 84.172 L 77 84.172 L 77 85.672 L 75.5 85.672 L 75.5 84.172 L 75.5 84.172 Z  M 78 84.172 L 79.5 84.172 L 79.5 85.672 L 78 85.672 L 78 84.172 L 78 84.172 Z  M 10.949 88.172 C 12.879 88.172 14.449 89.742 14.449 91.672 L 14.449 95.172 L 7.449 95.172 L 7.449 91.672 C 7.449 89.742 9.019 88.172 10.949 88.172 Z  M 88.949 88.172 C 90.879 88.172 92.449 89.742 92.449 91.672 L 92.449 95.172 L 85.449 95.172 L 85.449 91.672 C 85.449 89.742 87.019 88.172 88.949 88.172 Z  M 22.5 89.176 C 23.603 89.176 24.5 90.073 24.5 91.176 L 24.5 95.182 L 20.5 95.182 L 20.5 91.176 C 20.5 90.073 21.397 89.176 22.5 89.176 Z  M 29.5 89.176 C 30.603 89.176 31.5 90.073 31.5 91.176 L 31.5 95.182 L 27.5 95.182 L 27.5 91.176 C 27.5 90.073 28.397 89.176 29.5 89.176 Z  M 36.5 89.176 C 37.603 89.176 38.5 90.073 38.5 91.176 L 38.5 95.182 L 34.5 95.182 L 34.5 91.176 C 34.5 90.073 35.397 89.176 36.5 89.176 Z  M 63.5 89.176 C 64.603 89.176 65.5 90.073 65.5 91.176 L 65.5 95.182 L 61.5 95.182 L 61.5 91.176 C 61.5 90.073 62.397 89.176 63.5 89.176 Z  M 70.5 89.176 C 71.603 89.176 72.5 90.073 72.5 91.176 L 72.5 95.182 L 68.5 95.182 L 68.5 91.176 C 68.5 90.073 69.397 89.176 70.5 89.176 Z  M 77.5 89.176 C 78.603 89.176 79.5 90.073 79.5 91.176 L 79.5 95.182 L 75.5 95.182 L 75.5 91.176 C 75.5 90.073 76.397 89.176 77.5 89.176 Z " fill="rgb(246,174,165)"/></g></g></svg>